<mxfile host="app.diagrams.net" modified="2023-10-23T23:02:32.660Z" agent="Mozilla/5.0 (Windows NT 10.0; Win64; x64) AppleWebKit/537.36 (KHTML, like Gecko) Chrome/116.0.5845.888 YaBrowser/23.9.0.0 Safari/537.36" version="22.0.6" etag="Kl2Sji4uNkkuVhwFkESv" type="github">
  <diagram name="Страница — 1" id="1OIM2Curgxn1-prH9vwQ">
    <mxGraphModel>
      <root>
        <mxCell id="0" />
        <mxCell id="1" parent="0" />
      </root>
    </mxGraphModel>
  </diagram>
</mxfile>
